<mxfile host="drawio-plugin" modified="2023-01-25T14:52:34.441Z" agent="5.0 (Macintosh; Intel Mac OS X 10_15_7) AppleWebKit/537.36 (KHTML, like Gecko) Chrome/97.0.4692.45 Safari/537.36" etag="EtJEp_Nh8hQJ7Z-AhWpd" version="20.5.3" type="embed"><diagram id="HrwDyQjONiFkZvDO85J4" name="Page-1"><mxGraphModel dx="698" dy="713" grid="1" gridSize="10" guides="1" tooltips="1" connect="1" arrows="1" fold="1" page="1" pageScale="1" pageWidth="850" pageHeight="1100" math="0" shadow="0"><root><mxCell id="0"/><mxCell id="1" parent="0"/><mxCell id="11" value="Request" style="swimlane;fontStyle=1;align=center;verticalAlign=top;childLayout=stackLayout;horizontal=1;startSize=26;horizontalStack=0;resizeParent=1;resizeParentMax=0;resizeLast=0;collapsible=1;marginBottom=0;" parent="1" vertex="1"><mxGeometry x="1300" y="540" width="190" height="372" as="geometry"/></mxCell><mxCell id="12" value="+ _method: string" style="text;strokeColor=none;fillColor=none;align=left;verticalAlign=top;spacingLeft=4;spacingRight=4;overflow=hidden;rotatable=0;points=[[0,0.5],[1,0.5]];portConstraint=eastwest;" parent="11" vertex="1"><mxGeometry y="26" width="190" height="26" as="geometry"/></mxCell><mxCell id="57" value="+ _query: string" style="text;strokeColor=none;fillColor=none;align=left;verticalAlign=top;spacingLeft=4;spacingRight=4;overflow=hidden;rotatable=0;points=[[0,0.5],[1,0.5]];portConstraint=eastwest;" parent="11" vertex="1"><mxGeometry y="52" width="190" height="26" as="geometry"/></mxCell><mxCell id="52" value="+ _host: string" style="text;strokeColor=none;fillColor=none;align=left;verticalAlign=top;spacingLeft=4;spacingRight=4;overflow=hidden;rotatable=0;points=[[0,0.5],[1,0.5]];portConstraint=eastwest;" parent="11" vertex="1"><mxGeometry y="78" width="190" height="26" as="geometry"/></mxCell><mxCell id="55" value="+ _port: int" style="text;strokeColor=none;fillColor=none;align=left;verticalAlign=top;spacingLeft=4;spacingRight=4;overflow=hidden;rotatable=0;points=[[0,0.5],[1,0.5]];portConstraint=eastwest;" parent="11" vertex="1"><mxGeometry y="104" width="190" height="26" as="geometry"/></mxCell><mxCell id="16" value="+ _url: string" style="text;strokeColor=none;fillColor=none;align=left;verticalAlign=top;spacingLeft=4;spacingRight=4;overflow=hidden;rotatable=0;points=[[0,0.5],[1,0.5]];portConstraint=eastwest;" parent="11" vertex="1"><mxGeometry y="130" width="190" height="26" as="geometry"/></mxCell><mxCell id="17" value="+ _body: string" style="text;strokeColor=none;fillColor=none;align=left;verticalAlign=top;spacingLeft=4;spacingRight=4;overflow=hidden;rotatable=0;points=[[0,0.5],[1,0.5]];portConstraint=eastwest;" parent="11" vertex="1"><mxGeometry y="156" width="190" height="26" as="geometry"/></mxCell><mxCell id="18" value="+ _httpVersion: string" style="text;strokeColor=none;fillColor=none;align=left;verticalAlign=top;spacingLeft=4;spacingRight=4;overflow=hidden;rotatable=0;points=[[0,0.5],[1,0.5]];portConstraint=eastwest;" parent="11" vertex="1"><mxGeometry y="182" width="190" height="26" as="geometry"/></mxCell><mxCell id="53" value="-  _headers: Header" style="text;strokeColor=none;fillColor=none;align=left;verticalAlign=top;spacingLeft=4;spacingRight=4;overflow=hidden;rotatable=0;points=[[0,0.5],[1,0.5]];portConstraint=eastwest;" parent="11" vertex="1"><mxGeometry y="208" width="190" height="26" as="geometry"/></mxCell><mxCell id="13" value="" style="line;strokeWidth=1;fillColor=none;align=left;verticalAlign=middle;spacingTop=-1;spacingLeft=3;spacingRight=3;rotatable=0;labelPosition=right;points=[];portConstraint=eastwest;" parent="11" vertex="1"><mxGeometry y="234" width="190" height="8" as="geometry"/></mxCell><mxCell id="185" value="+ getPort(int): void" style="text;strokeColor=none;fillColor=none;align=left;verticalAlign=top;spacingLeft=4;spacingRight=4;overflow=hidden;rotatable=0;points=[[0,0.5],[1,0.5]];portConstraint=eastwest;" parent="11" vertex="1"><mxGeometry y="242" width="190" height="26" as="geometry"/></mxCell><mxCell id="14" value="+ setBlob(const string&amp;): void" style="text;strokeColor=none;fillColor=none;align=left;verticalAlign=top;spacingLeft=4;spacingRight=4;overflow=hidden;rotatable=0;points=[[0,0.5],[1,0.5]];portConstraint=eastwest;" parent="11" vertex="1"><mxGeometry y="268" width="190" height="26" as="geometry"/></mxCell><mxCell id="327" value="+ headers(): Header&amp;" style="text;strokeColor=none;fillColor=none;align=left;verticalAlign=top;spacingLeft=4;spacingRight=4;overflow=hidden;rotatable=0;points=[[0,0.5],[1,0.5]];portConstraint=eastwest;" parent="11" vertex="1"><mxGeometry y="294" width="190" height="26" as="geometry"/></mxCell><mxCell id="328" value="+ setRequest(string): void" style="text;strokeColor=none;fillColor=none;align=left;verticalAlign=top;spacingLeft=4;spacingRight=4;overflow=hidden;rotatable=0;points=[[0,0.5],[1,0.5]];portConstraint=eastwest;" parent="11" vertex="1"><mxGeometry y="320" width="190" height="26" as="geometry"/></mxCell><mxCell id="23" value="+ getHeaders(): Header&amp;" style="text;strokeColor=none;fillColor=none;align=left;verticalAlign=top;spacingLeft=4;spacingRight=4;overflow=hidden;rotatable=0;points=[[0,0.5],[1,0.5]];portConstraint=eastwest;" parent="11" vertex="1"><mxGeometry y="346" width="190" height="26" as="geometry"/></mxCell><mxCell id="19" value="Header" style="swimlane;fontStyle=1;align=center;verticalAlign=top;childLayout=stackLayout;horizontal=1;startSize=26;horizontalStack=0;resizeParent=1;resizeParentMax=0;resizeLast=0;collapsible=1;marginBottom=0;" parent="1" vertex="1"><mxGeometry x="1000" y="678" width="230" height="142" as="geometry"/></mxCell><mxCell id="50" value="- params: map&lt;string, string&gt;" style="text;strokeColor=none;fillColor=none;align=left;verticalAlign=top;spacingLeft=4;spacingRight=4;overflow=hidden;rotatable=0;points=[[0,0.5],[1,0.5]];portConstraint=eastwest;" parent="19" vertex="1"><mxGeometry y="26" width="230" height="26" as="geometry"/></mxCell><mxCell id="49" value="" style="line;strokeWidth=1;fillColor=none;align=left;verticalAlign=middle;spacingTop=-1;spacingLeft=3;spacingRight=3;rotatable=0;labelPosition=right;points=[];portConstraint=eastwest;" parent="19" vertex="1"><mxGeometry y="52" width="230" height="8" as="geometry"/></mxCell><mxCell id="22" value="+ get(string): string" style="text;strokeColor=none;fillColor=none;align=left;verticalAlign=top;spacingLeft=4;spacingRight=4;overflow=hidden;rotatable=0;points=[[0,0.5],[1,0.5]];portConstraint=eastwest;" parent="19" vertex="1"><mxGeometry y="60" width="230" height="26" as="geometry"/></mxCell><mxCell id="26" value="+ delete(string): void" style="text;strokeColor=none;fillColor=none;align=left;verticalAlign=top;spacingLeft=4;spacingRight=4;overflow=hidden;rotatable=0;points=[[0,0.5],[1,0.5]];portConstraint=eastwest;" parent="19" vertex="1"><mxGeometry y="86" width="230" height="26" as="geometry"/></mxCell><mxCell id="24" value="+ append(string, string): void" style="text;strokeColor=none;fillColor=none;align=left;verticalAlign=top;spacingLeft=4;spacingRight=4;overflow=hidden;rotatable=0;points=[[0,0.5],[1,0.5]];portConstraint=eastwest;" parent="19" vertex="1"><mxGeometry y="112" width="230" height="30" as="geometry"/></mxCell><mxCell id="28" value="AResponse" style="swimlane;fontStyle=3;align=center;verticalAlign=top;childLayout=stackLayout;horizontal=1;startSize=26;horizontalStack=0;resizeParent=1;resizeParentMax=0;resizeLast=0;collapsible=1;marginBottom=0;" parent="1" vertex="1"><mxGeometry x="1019" y="350" width="192" height="190" as="geometry"/></mxCell><mxCell id="29" value="- _status: int" style="text;strokeColor=none;fillColor=none;align=left;verticalAlign=top;spacingLeft=4;spacingRight=4;overflow=hidden;rotatable=0;points=[[0,0.5],[1,0.5]];portConstraint=eastwest;" parent="28" vertex="1"><mxGeometry y="26" width="192" height="26" as="geometry"/></mxCell><mxCell id="177" value="- _header: int" style="text;strokeColor=none;fillColor=none;align=left;verticalAlign=top;spacingLeft=4;spacingRight=4;overflow=hidden;rotatable=0;points=[[0,0.5],[1,0.5]];portConstraint=eastwest;" parent="28" vertex="1"><mxGeometry y="52" width="192" height="26" as="geometry"/></mxCell><mxCell id="30" value="" style="line;strokeWidth=1;fillColor=none;align=left;verticalAlign=middle;spacingTop=-1;spacingLeft=3;spacingRight=3;rotatable=0;labelPosition=right;points=[];portConstraint=eastwest;" parent="28" vertex="1"><mxGeometry y="78" width="192" height="8" as="geometry"/></mxCell><mxCell id="67" value="+ setStatus(int): void" style="text;strokeColor=none;fillColor=none;align=left;verticalAlign=top;spacingLeft=4;spacingRight=4;overflow=hidden;rotatable=0;points=[[0,0.5],[1,0.5]];portConstraint=eastwest;" parent="28" vertex="1"><mxGeometry y="86" width="192" height="26" as="geometry"/></mxCell><mxCell id="68" value="+ getBlob(): string" style="text;strokeColor=none;fillColor=none;align=left;verticalAlign=top;spacingLeft=4;spacingRight=4;overflow=hidden;rotatable=0;points=[[0,0.5],[1,0.5]];portConstraint=eastwest;" parent="28" vertex="1"><mxGeometry y="112" width="192" height="26" as="geometry"/></mxCell><mxCell id="72" value="+ getHeaders(): Header&amp;" style="text;strokeColor=none;fillColor=none;align=left;verticalAlign=top;spacingLeft=4;spacingRight=4;overflow=hidden;rotatable=0;points=[[0,0.5],[1,0.5]];portConstraint=eastwest;" parent="28" vertex="1"><mxGeometry y="138" width="192" height="26" as="geometry"/></mxCell><mxCell id="329" value="+ setResponse(Resquest&amp;): void" style="text;strokeColor=none;fillColor=none;align=left;verticalAlign=top;spacingLeft=4;spacingRight=4;overflow=hidden;rotatable=0;points=[[0,0.5],[1,0.5]];portConstraint=eastwest;" parent="28" vertex="1"><mxGeometry y="164" width="192" height="26" as="geometry"/></mxCell><mxCell id="36" value="Server" style="swimlane;fontStyle=1;align=center;verticalAlign=top;childLayout=stackLayout;horizontal=1;startSize=26;horizontalStack=0;resizeParent=1;resizeParentMax=0;resizeLast=0;collapsible=1;marginBottom=0;" parent="1" vertex="1"><mxGeometry x="270" y="515" width="230" height="502" as="geometry"/></mxCell><mxCell id="37" value="+ host: string" style="text;strokeColor=none;fillColor=none;align=left;verticalAlign=top;spacingLeft=4;spacingRight=4;overflow=hidden;rotatable=0;points=[[0,0.5],[1,0.5]];portConstraint=eastwest;" parent="36" vertex="1"><mxGeometry y="26" width="230" height="26" as="geometry"/></mxCell><mxCell id="41" value="- _binding:  IBinding*" style="text;strokeColor=none;fillColor=none;align=left;verticalAlign=top;spacingLeft=4;spacingRight=4;overflow=hidden;rotatable=0;points=[[0,0.5],[1,0.5]];portConstraint=eastwest;" parent="36" vertex="1"><mxGeometry y="52" width="230" height="26" as="geometry"/></mxCell><mxCell id="56" value="- _root: string" style="text;strokeColor=none;fillColor=none;align=left;verticalAlign=top;spacingLeft=4;spacingRight=4;overflow=hidden;rotatable=0;points=[[0,0.5],[1,0.5]];portConstraint=eastwest;" parent="36" vertex="1"><mxGeometry y="78" width="230" height="26" as="geometry"/></mxCell><mxCell id="62" value="- _cgi: vector&lt;CGI&gt;" style="text;strokeColor=none;fillColor=none;align=left;verticalAlign=top;spacingLeft=4;spacingRight=4;overflow=hidden;rotatable=0;points=[[0,0.5],[1,0.5]];portConstraint=eastwest;" parent="36" vertex="1"><mxGeometry y="104" width="230" height="26" as="geometry"/></mxCell><mxCell id="64" value="- _mimetypes: map&lt;string, string&gt;" style="text;strokeColor=none;fillColor=none;align=left;verticalAlign=top;spacingLeft=4;spacingRight=4;overflow=hidden;rotatable=0;points=[[0,0.5],[1,0.5]];portConstraint=eastwest;" parent="36" vertex="1"><mxGeometry y="130" width="230" height="26" as="geometry"/></mxCell><mxCell id="129" value="- _domains: vector&lt;string&gt;" style="text;strokeColor=none;fillColor=none;align=left;verticalAlign=top;spacingLeft=4;spacingRight=4;overflow=hidden;rotatable=0;points=[[0,0.5],[1,0.5]];portConstraint=eastwest;" parent="36" vertex="1"><mxGeometry y="156" width="230" height="26" as="geometry"/></mxCell><mxCell id="65" value="- _indexes: vector&lt;string&gt;" style="text;strokeColor=none;fillColor=none;align=left;verticalAlign=top;spacingLeft=4;spacingRight=4;overflow=hidden;rotatable=0;points=[[0,0.5],[1,0.5]];portConstraint=eastwest;" parent="36" vertex="1"><mxGeometry y="182" width="230" height="26" as="geometry"/></mxCell><mxCell id="145" value="- _locations: vector&lt;Location&gt;" style="text;strokeColor=none;fillColor=none;align=left;verticalAlign=top;spacingLeft=4;spacingRight=4;overflow=hidden;rotatable=0;points=[[0,0.5],[1,0.5]];portConstraint=eastwest;" parent="36" vertex="1"><mxGeometry y="208" width="230" height="26" as="geometry"/></mxCell><mxCell id="154" value="- _redirect: vector&lt;Redirect&gt;" style="text;strokeColor=none;fillColor=none;align=left;verticalAlign=top;spacingLeft=4;spacingRight=4;overflow=hidden;rotatable=0;points=[[0,0.5],[1,0.5]];portConstraint=eastwest;" parent="36" vertex="1"><mxGeometry y="234" width="230" height="26" as="geometry"/></mxCell><mxCell id="157" value="- _accessLog: string" style="text;strokeColor=none;fillColor=none;align=left;verticalAlign=top;spacingLeft=4;spacingRight=4;overflow=hidden;rotatable=0;points=[[0,0.5],[1,0.5]];portConstraint=eastwest;" parent="36" vertex="1"><mxGeometry y="260" width="230" height="26" as="geometry"/></mxCell><mxCell id="164" value="- _errorPages: vector&lt;ErrorPage&gt;" style="text;strokeColor=none;fillColor=none;align=left;verticalAlign=top;spacingLeft=4;spacingRight=4;overflow=hidden;rotatable=0;points=[[0,0.5],[1,0.5]];portConstraint=eastwest;" parent="36" vertex="1"><mxGeometry y="286" width="230" height="26" as="geometry"/></mxCell><mxCell id="321" value="- _allowedMethods: vector&lt;string&gt;" style="text;strokeColor=none;fillColor=none;align=left;verticalAlign=top;spacingLeft=4;spacingRight=4;overflow=hidden;rotatable=0;points=[[0,0.5],[1,0.5]];portConstraint=eastwest;" parent="36" vertex="1"><mxGeometry y="312" width="230" height="26" as="geometry"/></mxCell><mxCell id="167" value="- _autoIndex: bool" style="text;strokeColor=none;fillColor=none;align=left;verticalAlign=top;spacingLeft=4;spacingRight=4;overflow=hidden;rotatable=0;points=[[0,0.5],[1,0.5]];portConstraint=eastwest;" parent="36" vertex="1"><mxGeometry y="338" width="230" height="26" as="geometry"/></mxCell><mxCell id="38" value="" style="line;strokeWidth=1;fillColor=none;align=left;verticalAlign=middle;spacingTop=-1;spacingLeft=3;spacingRight=3;rotatable=0;labelPosition=right;points=[];portConstraint=eastwest;" parent="36" vertex="1"><mxGeometry y="364" width="230" height="8" as="geometry"/></mxCell><mxCell id="39" value="+ isForMe(Request): bool" style="text;strokeColor=none;fillColor=none;align=left;verticalAlign=top;spacingLeft=4;spacingRight=4;overflow=hidden;rotatable=0;points=[[0,0.5],[1,0.5]];portConstraint=eastwest;" parent="36" vertex="1"><mxGeometry y="372" width="230" height="26" as="geometry"/></mxCell><mxCell id="139" value="+ setBinding(*IBinding): void" style="text;strokeColor=none;fillColor=none;align=left;verticalAlign=top;spacingLeft=4;spacingRight=4;overflow=hidden;rotatable=0;points=[[0,0.5],[1,0.5]];portConstraint=eastwest;" parent="36" vertex="1"><mxGeometry y="398" width="230" height="26" as="geometry"/></mxCell><mxCell id="66" value="+ method(type): type" style="text;strokeColor=none;fillColor=none;align=left;verticalAlign=top;spacingLeft=4;spacingRight=4;overflow=hidden;rotatable=0;points=[[0,0.5],[1,0.5]];portConstraint=eastwest;" parent="36" vertex="1"><mxGeometry y="424" width="230" height="26" as="geometry"/></mxCell><mxCell id="46" value="+ bind(Binding): void" style="text;strokeColor=none;fillColor=none;align=left;verticalAlign=top;spacingLeft=4;spacingRight=4;overflow=hidden;rotatable=0;points=[[0,0.5],[1,0.5]];portConstraint=eastwest;" parent="36" vertex="1"><mxGeometry y="450" width="230" height="26" as="geometry"/></mxCell><mxCell id="69" value="+ treatRequest(Request): Response" style="text;strokeColor=none;fillColor=none;align=left;verticalAlign=top;spacingLeft=4;spacingRight=4;overflow=hidden;rotatable=0;points=[[0,0.5],[1,0.5]];portConstraint=eastwest;" parent="36" vertex="1"><mxGeometry y="476" width="230" height="26" as="geometry"/></mxCell><mxCell id="58" value="CGI" style="swimlane;fontStyle=1;align=center;verticalAlign=top;childLayout=stackLayout;horizontal=1;startSize=26;horizontalStack=0;resizeParent=1;resizeParentMax=0;resizeLast=0;collapsible=1;marginBottom=0;" parent="1" vertex="1"><mxGeometry x="580" y="636" width="200" height="190" as="geometry"/></mxCell><mxCell id="59" value="+ _extension: vector&lt;string&gt;" style="text;strokeColor=none;fillColor=none;align=left;verticalAlign=top;spacingLeft=4;spacingRight=4;overflow=hidden;rotatable=0;points=[[0,0.5],[1,0.5]];portConstraint=eastwest;" parent="58" vertex="1"><mxGeometry y="26" width="200" height="26" as="geometry"/></mxCell><mxCell id="63" value="+ _location: string" style="text;strokeColor=none;fillColor=none;align=left;verticalAlign=top;spacingLeft=4;spacingRight=4;overflow=hidden;rotatable=0;points=[[0,0.5],[1,0.5]];portConstraint=eastwest;" parent="58" vertex="1"><mxGeometry y="52" width="200" height="26" as="geometry"/></mxCell><mxCell id="60" value="" style="line;strokeWidth=1;fillColor=none;align=left;verticalAlign=middle;spacingTop=-1;spacingLeft=3;spacingRight=3;rotatable=0;labelPosition=right;points=[];portConstraint=eastwest;" parent="58" vertex="1"><mxGeometry y="78" width="200" height="8" as="geometry"/></mxCell><mxCell id="61" value="+ isForMe(Request): bool" style="text;strokeColor=none;fillColor=none;align=left;verticalAlign=top;spacingLeft=4;spacingRight=4;overflow=hidden;rotatable=0;points=[[0,0.5],[1,0.5]];portConstraint=eastwest;" parent="58" vertex="1"><mxGeometry y="86" width="200" height="26" as="geometry"/></mxCell><mxCell id="138" value="+ execute(Request): string" style="text;strokeColor=none;fillColor=none;align=left;verticalAlign=top;spacingLeft=4;spacingRight=4;overflow=hidden;rotatable=0;points=[[0,0.5],[1,0.5]];portConstraint=eastwest;" parent="58" vertex="1"><mxGeometry y="112" width="200" height="26" as="geometry"/></mxCell><mxCell id="136" value="+ addExtension(string): void" style="text;strokeColor=none;fillColor=none;align=left;verticalAlign=top;spacingLeft=4;spacingRight=4;overflow=hidden;rotatable=0;points=[[0,0.5],[1,0.5]];portConstraint=eastwest;" parent="58" vertex="1"><mxGeometry y="138" width="200" height="26" as="geometry"/></mxCell><mxCell id="137" value="+ execute(Request): string" style="text;strokeColor=none;fillColor=none;align=left;verticalAlign=top;spacingLeft=4;spacingRight=4;overflow=hidden;rotatable=0;points=[[0,0.5],[1,0.5]];portConstraint=eastwest;" parent="58" vertex="1"><mxGeometry y="164" width="200" height="26" as="geometry"/></mxCell><mxCell id="77" value="IBinding" style="swimlane;fontStyle=3;align=center;verticalAlign=top;childLayout=stackLayout;horizontal=1;startSize=26;horizontalStack=0;resizeParent=1;resizeParentMax=0;resizeLast=0;collapsible=1;marginBottom=0;" parent="1" vertex="1"><mxGeometry x="590" y="90" width="190" height="182" as="geometry"/></mxCell><mxCell id="80" value="+ setSocket(int): void" style="text;strokeColor=none;fillColor=none;align=left;verticalAlign=top;spacingLeft=4;spacingRight=4;overflow=hidden;rotatable=0;points=[[0,0.5],[1,0.5]];portConstraint=eastwest;" parent="77" vertex="1"><mxGeometry y="26" width="190" height="26" as="geometry"/></mxCell><mxCell id="122" value="+ setIP(std::string): void" style="text;strokeColor=none;fillColor=none;align=left;verticalAlign=top;spacingLeft=4;spacingRight=4;overflow=hidden;rotatable=0;points=[[0,0.5],[1,0.5]];portConstraint=eastwest;" parent="77" vertex="1"><mxGeometry y="52" width="190" height="26" as="geometry"/></mxCell><mxCell id="123" value="+ setPort(int): void" style="text;strokeColor=none;fillColor=none;align=left;verticalAlign=top;spacingLeft=4;spacingRight=4;overflow=hidden;rotatable=0;points=[[0,0.5],[1,0.5]];portConstraint=eastwest;" parent="77" vertex="1"><mxGeometry y="78" width="190" height="26" as="geometry"/></mxCell><mxCell id="131" value="+ send(string): void" style="text;strokeColor=none;fillColor=none;align=left;verticalAlign=top;spacingLeft=4;spacingRight=4;overflow=hidden;rotatable=0;points=[[0,0.5],[1,0.5]];portConstraint=eastwest;" parent="77" vertex="1"><mxGeometry y="104" width="190" height="26" as="geometry"/></mxCell><mxCell id="134" value="+ send(Response): void" style="text;strokeColor=none;fillColor=none;align=left;verticalAlign=top;spacingLeft=4;spacingRight=4;overflow=hidden;rotatable=0;points=[[0,0.5],[1,0.5]];portConstraint=eastwest;" parent="77" vertex="1"><mxGeometry y="130" width="190" height="26" as="geometry"/></mxCell><mxCell id="132" value="+ readHeader(string): Request" style="text;strokeColor=none;fillColor=none;align=left;verticalAlign=top;spacingLeft=4;spacingRight=4;overflow=hidden;rotatable=0;points=[[0,0.5],[1,0.5]];portConstraint=eastwest;" parent="77" vertex="1"><mxGeometry y="156" width="190" height="26" as="geometry"/></mxCell><mxCell id="81" value="HHPP" style="swimlane;fontStyle=1;align=center;verticalAlign=top;childLayout=stackLayout;horizontal=1;startSize=26;horizontalStack=0;resizeParent=1;resizeParentMax=0;resizeLast=0;collapsible=1;marginBottom=0;" parent="1" vertex="1"><mxGeometry x="270" y="56" width="230" height="242" as="geometry"/></mxCell><mxCell id="82" value="- _servers: vector&lt;IServer*&gt;" style="text;strokeColor=none;fillColor=none;align=left;verticalAlign=top;spacingLeft=4;spacingRight=4;overflow=hidden;rotatable=0;points=[[0,0.5],[1,0.5]];portConstraint=eastwest;" parent="81" vertex="1"><mxGeometry y="26" width="230" height="26" as="geometry"/></mxCell><mxCell id="86" value="- _bindings: vector&lt;IBinding*&gt;" style="text;strokeColor=none;fillColor=none;align=left;verticalAlign=top;spacingLeft=4;spacingRight=4;overflow=hidden;rotatable=0;points=[[0,0.5],[1,0.5]];portConstraint=eastwest;" parent="81" vertex="1"><mxGeometry y="52" width="230" height="26" as="geometry"/></mxCell><mxCell id="83" value="" style="line;strokeWidth=1;fillColor=none;align=left;verticalAlign=middle;spacingTop=-1;spacingLeft=3;spacingRight=3;rotatable=0;labelPosition=right;points=[];portConstraint=eastwest;" parent="81" vertex="1"><mxGeometry y="78" width="230" height="8" as="geometry"/></mxCell><mxCell id="323" value="+ HHPP()" style="text;strokeColor=none;fillColor=none;align=left;verticalAlign=top;spacingLeft=4;spacingRight=4;overflow=hidden;rotatable=0;points=[[0,0.5],[1,0.5]];portConstraint=eastwest;" parent="81" vertex="1"><mxGeometry y="86" width="230" height="26" as="geometry"/></mxCell><mxCell id="322" value="+ ~HHPP()" style="text;strokeColor=none;fillColor=none;align=left;verticalAlign=top;spacingLeft=4;spacingRight=4;overflow=hidden;rotatable=0;points=[[0,0.5],[1,0.5]];portConstraint=eastwest;" parent="81" vertex="1"><mxGeometry y="112" width="230" height="26" as="geometry"/></mxCell><mxCell id="84" value="+ loadConfig(std::string): void" style="text;strokeColor=none;fillColor=none;align=left;verticalAlign=top;spacingLeft=4;spacingRight=4;overflow=hidden;rotatable=0;points=[[0,0.5],[1,0.5]];portConstraint=eastwest;" parent="81" vertex="1"><mxGeometry y="138" width="230" height="26" as="geometry"/></mxCell><mxCell id="85" value="+ run(): void" style="text;strokeColor=none;fillColor=none;align=left;verticalAlign=top;spacingLeft=4;spacingRight=4;overflow=hidden;rotatable=0;points=[[0,0.5],[1,0.5]];portConstraint=eastwest;" parent="81" vertex="1"><mxGeometry y="164" width="230" height="26" as="geometry"/></mxCell><mxCell id="324" value="- readFileConfig(std::string): void" style="text;strokeColor=none;fillColor=none;align=left;verticalAlign=top;spacingLeft=4;spacingRight=4;overflow=hidden;rotatable=0;points=[[0,0.5],[1,0.5]];portConstraint=eastwest;" parent="81" vertex="1"><mxGeometry y="190" width="230" height="26" as="geometry"/></mxCell><mxCell id="127" value="- dispatchRequest(request): void" style="text;strokeColor=none;fillColor=none;align=left;verticalAlign=top;spacingLeft=4;spacingRight=4;overflow=hidden;rotatable=0;points=[[0,0.5],[1,0.5]];portConstraint=eastwest;" parent="81" vertex="1"><mxGeometry y="216" width="230" height="26" as="geometry"/></mxCell><mxCell id="92" value="IServer" style="swimlane;fontStyle=3;align=center;verticalAlign=top;childLayout=stackLayout;horizontal=1;startSize=26;horizontalStack=0;resizeParent=1;resizeParentMax=0;resizeLast=0;collapsible=1;marginBottom=0;" parent="1" vertex="1"><mxGeometry x="270" y="332.99999999999994" width="230" height="130" as="geometry"/></mxCell><mxCell id="101" value="+ isForMe(Request): bool" style="text;strokeColor=none;fillColor=none;align=left;verticalAlign=top;spacingLeft=4;spacingRight=4;overflow=hidden;rotatable=0;points=[[0,0.5],[1,0.5]];portConstraint=eastwest;" parent="92" vertex="1"><mxGeometry y="26" width="230" height="26" as="geometry"/></mxCell><mxCell id="102" value="+ method(type): type" style="text;strokeColor=none;fillColor=none;align=left;verticalAlign=top;spacingLeft=4;spacingRight=4;overflow=hidden;rotatable=0;points=[[0,0.5],[1,0.5]];portConstraint=eastwest;" parent="92" vertex="1"><mxGeometry y="52" width="230" height="26" as="geometry"/></mxCell><mxCell id="103" value="+ bind(Binding): void" style="text;strokeColor=none;fillColor=none;align=left;verticalAlign=top;spacingLeft=4;spacingRight=4;overflow=hidden;rotatable=0;points=[[0,0.5],[1,0.5]];portConstraint=eastwest;" parent="92" vertex="1"><mxGeometry y="78" width="230" height="26" as="geometry"/></mxCell><mxCell id="104" value="+ treatRequest(Request): Response" style="text;strokeColor=none;fillColor=none;align=left;verticalAlign=top;spacingLeft=4;spacingRight=4;overflow=hidden;rotatable=0;points=[[0,0.5],[1,0.5]];portConstraint=eastwest;" parent="92" vertex="1"><mxGeometry y="104" width="230" height="26" as="geometry"/></mxCell><mxCell id="107" value="" style="endArrow=diamondThin;endFill=1;endSize=24;html=1;" parent="1" source="92" target="81" edge="1"><mxGeometry width="160" relative="1" as="geometry"><mxPoint x="310" y="360" as="sourcePoint"/><mxPoint x="470" y="360" as="targetPoint"/></mxGeometry></mxCell><mxCell id="108" value="1..*" style="edgeLabel;html=1;align=center;verticalAlign=middle;resizable=0;points=[];" parent="107" vertex="1" connectable="0"><mxGeometry x="-0.4385" relative="1" as="geometry"><mxPoint as="offset"/></mxGeometry></mxCell><mxCell id="111" value="" style="endArrow=block;dashed=1;endFill=0;endSize=12;html=1;" parent="1" source="36" target="92" edge="1"><mxGeometry width="160" relative="1" as="geometry"><mxPoint x="320" y="558.17" as="sourcePoint"/><mxPoint x="480" y="558.17" as="targetPoint"/></mxGeometry></mxCell><mxCell id="112" value="" style="endArrow=diamondThin;endFill=1;endSize=24;html=1;" parent="1" source="77" target="81" edge="1"><mxGeometry width="160" relative="1" as="geometry"><mxPoint x="395" y="545" as="sourcePoint"/><mxPoint x="395" y="228.0000000000001" as="targetPoint"/><Array as="points"/></mxGeometry></mxCell><mxCell id="113" value="1..*" style="edgeLabel;html=1;align=center;verticalAlign=middle;resizable=0;points=[];" parent="112" vertex="1" connectable="0"><mxGeometry x="-0.4385" relative="1" as="geometry"><mxPoint x="2" y="-9" as="offset"/></mxGeometry></mxCell><mxCell id="115" value="Binding" style="swimlane;fontStyle=1;align=center;verticalAlign=top;childLayout=stackLayout;horizontal=1;startSize=26;horizontalStack=0;resizeParent=1;resizeParentMax=0;resizeLast=0;collapsible=1;marginBottom=0;" parent="1" vertex="1"><mxGeometry x="570" y="338" width="230" height="268" as="geometry"/></mxCell><mxCell id="116" value="- _socked: int" style="text;strokeColor=none;fillColor=none;align=left;verticalAlign=top;spacingLeft=4;spacingRight=4;overflow=hidden;rotatable=0;points=[[0,0.5],[1,0.5]];portConstraint=eastwest;" parent="115" vertex="1"><mxGeometry y="26" width="230" height="26" as="geometry"/></mxCell><mxCell id="120" value="- _ip: std::string" style="text;strokeColor=none;fillColor=none;align=left;verticalAlign=top;spacingLeft=4;spacingRight=4;overflow=hidden;rotatable=0;points=[[0,0.5],[1,0.5]];portConstraint=eastwest;" parent="115" vertex="1"><mxGeometry y="52" width="230" height="26" as="geometry"/></mxCell><mxCell id="121" value="- _port: int" style="text;strokeColor=none;fillColor=none;align=left;verticalAlign=top;spacingLeft=4;spacingRight=4;overflow=hidden;rotatable=0;points=[[0,0.5],[1,0.5]];portConstraint=eastwest;" parent="115" vertex="1"><mxGeometry y="78" width="230" height="26" as="geometry"/></mxCell><mxCell id="117" value="" style="line;strokeWidth=1;fillColor=none;align=left;verticalAlign=middle;spacingTop=-1;spacingLeft=3;spacingRight=3;rotatable=0;labelPosition=right;points=[];portConstraint=eastwest;" parent="115" vertex="1"><mxGeometry y="104" width="230" height="8" as="geometry"/></mxCell><mxCell id="118" value="+ setSocket(int): void" style="text;strokeColor=none;fillColor=none;align=left;verticalAlign=top;spacingLeft=4;spacingRight=4;overflow=hidden;rotatable=0;points=[[0,0.5],[1,0.5]];portConstraint=eastwest;" parent="115" vertex="1"><mxGeometry y="112" width="230" height="26" as="geometry"/></mxCell><mxCell id="124" value="+ setIP(string): void" style="text;strokeColor=none;fillColor=none;align=left;verticalAlign=top;spacingLeft=4;spacingRight=4;overflow=hidden;rotatable=0;points=[[0,0.5],[1,0.5]];portConstraint=eastwest;" parent="115" vertex="1"><mxGeometry y="138" width="230" height="26" as="geometry"/></mxCell><mxCell id="125" value="+ setPort(int): void" style="text;strokeColor=none;fillColor=none;align=left;verticalAlign=top;spacingLeft=4;spacingRight=4;overflow=hidden;rotatable=0;points=[[0,0.5],[1,0.5]];portConstraint=eastwest;" parent="115" vertex="1"><mxGeometry y="164" width="230" height="26" as="geometry"/></mxCell><mxCell id="130" value="+ send(string): void" style="text;strokeColor=none;fillColor=none;align=left;verticalAlign=top;spacingLeft=4;spacingRight=4;overflow=hidden;rotatable=0;points=[[0,0.5],[1,0.5]];portConstraint=eastwest;" parent="115" vertex="1"><mxGeometry y="190" width="230" height="26" as="geometry"/></mxCell><mxCell id="135" value="+ send(Response): void" style="text;strokeColor=none;fillColor=none;align=left;verticalAlign=top;spacingLeft=4;spacingRight=4;overflow=hidden;rotatable=0;points=[[0,0.5],[1,0.5]];portConstraint=eastwest;" parent="115" vertex="1"><mxGeometry y="216" width="230" height="26" as="geometry"/></mxCell><mxCell id="133" value="+ readHeader(string&amp;, Request&amp;): void" style="text;strokeColor=none;fillColor=none;align=left;verticalAlign=top;spacingLeft=4;spacingRight=4;overflow=hidden;rotatable=0;points=[[0,0.5],[1,0.5]];portConstraint=eastwest;" parent="115" vertex="1"><mxGeometry y="242" width="230" height="26" as="geometry"/></mxCell><mxCell id="126" value="" style="endArrow=block;dashed=1;endFill=0;endSize=12;html=1;" parent="1" source="115" target="77" edge="1"><mxGeometry width="160" relative="1" as="geometry"><mxPoint x="560" y="460" as="sourcePoint"/><mxPoint x="720" y="460" as="targetPoint"/></mxGeometry></mxCell><mxCell id="140" value="Location" style="swimlane;fontStyle=1;align=center;verticalAlign=top;childLayout=stackLayout;horizontal=1;startSize=26;horizontalStack=0;resizeParent=1;resizeParentMax=0;resizeLast=0;collapsible=1;marginBottom=0;" parent="1" vertex="1"><mxGeometry x="10" y="686" width="180" height="112" as="geometry"/></mxCell><mxCell id="141" value="- _path: string" style="text;strokeColor=none;fillColor=none;align=left;verticalAlign=top;spacingLeft=4;spacingRight=4;overflow=hidden;rotatable=0;points=[[0,0.5],[1,0.5]];portConstraint=eastwest;" parent="140" vertex="1"><mxGeometry y="26" width="180" height="26" as="geometry"/></mxCell><mxCell id="144" value="- _root: string" style="text;strokeColor=none;fillColor=none;align=left;verticalAlign=top;spacingLeft=4;spacingRight=4;overflow=hidden;rotatable=0;points=[[0,0.5],[1,0.5]];portConstraint=eastwest;" parent="140" vertex="1"><mxGeometry y="52" width="180" height="26" as="geometry"/></mxCell><mxCell id="142" value="" style="line;strokeWidth=1;fillColor=none;align=left;verticalAlign=middle;spacingTop=-1;spacingLeft=3;spacingRight=3;rotatable=0;labelPosition=right;points=[];portConstraint=eastwest;" parent="140" vertex="1"><mxGeometry y="78" width="180" height="8" as="geometry"/></mxCell><mxCell id="143" value="+ Location(string, string): void" style="text;strokeColor=none;fillColor=none;align=left;verticalAlign=top;spacingLeft=4;spacingRight=4;overflow=hidden;rotatable=0;points=[[0,0.5],[1,0.5]];portConstraint=eastwest;" parent="140" vertex="1"><mxGeometry y="86" width="180" height="26" as="geometry"/></mxCell><mxCell id="146" value="0..*" style="endArrow=diamondThin;endFill=0;endSize=24;html=1;" parent="1" source="140" target="36" edge="1"><mxGeometry x="-0.6315" y="4" width="160" relative="1" as="geometry"><mxPoint x="30" y="770" as="sourcePoint"/><mxPoint x="190" y="770" as="targetPoint"/><mxPoint as="offset"/></mxGeometry></mxCell><mxCell id="147" value="" style="endArrow=diamondThin;endFill=0;endSize=24;html=1;" parent="1" source="19" target="11" edge="1"><mxGeometry width="160" relative="1" as="geometry"><mxPoint x="1600" y="1382" as="sourcePoint"/><mxPoint x="1760" y="1382" as="targetPoint"/></mxGeometry></mxCell><mxCell id="148" value="Redirect" style="swimlane;fontStyle=1;align=center;verticalAlign=top;childLayout=stackLayout;horizontal=1;startSize=26;horizontalStack=0;resizeParent=1;resizeParentMax=0;resizeLast=0;collapsible=1;marginBottom=0;" parent="1" vertex="1"><mxGeometry x="30" y="846" width="160" height="138" as="geometry"/></mxCell><mxCell id="149" value="- _path: string" style="text;strokeColor=none;fillColor=none;align=left;verticalAlign=top;spacingLeft=4;spacingRight=4;overflow=hidden;rotatable=0;points=[[0,0.5],[1,0.5]];portConstraint=eastwest;" parent="148" vertex="1"><mxGeometry y="26" width="160" height="26" as="geometry"/></mxCell><mxCell id="152" value="- _destination: string" style="text;strokeColor=none;fillColor=none;align=left;verticalAlign=top;spacingLeft=4;spacingRight=4;overflow=hidden;rotatable=0;points=[[0,0.5],[1,0.5]];portConstraint=eastwest;" parent="148" vertex="1"><mxGeometry y="52" width="160" height="26" as="geometry"/></mxCell><mxCell id="156" value="- _status: int" style="text;strokeColor=none;fillColor=none;align=left;verticalAlign=top;spacingLeft=4;spacingRight=4;overflow=hidden;rotatable=0;points=[[0,0.5],[1,0.5]];portConstraint=eastwest;" parent="148" vertex="1"><mxGeometry y="78" width="160" height="26" as="geometry"/></mxCell><mxCell id="150" value="" style="line;strokeWidth=1;fillColor=none;align=left;verticalAlign=middle;spacingTop=-1;spacingLeft=3;spacingRight=3;rotatable=0;labelPosition=right;points=[];portConstraint=eastwest;" parent="148" vertex="1"><mxGeometry y="104" width="160" height="8" as="geometry"/></mxCell><mxCell id="151" value="+ method(type): type" style="text;strokeColor=none;fillColor=none;align=left;verticalAlign=top;spacingLeft=4;spacingRight=4;overflow=hidden;rotatable=0;points=[[0,0.5],[1,0.5]];portConstraint=eastwest;" parent="148" vertex="1"><mxGeometry y="112" width="160" height="26" as="geometry"/></mxCell><mxCell id="153" value="0..*" style="endArrow=diamondThin;endFill=0;endSize=24;html=1;" parent="1" source="148" target="36" edge="1"><mxGeometry x="-0.6316" y="-2" width="160" relative="1" as="geometry"><mxPoint x="-50" y="540" as="sourcePoint"/><mxPoint x="110" y="540" as="targetPoint"/><mxPoint as="offset"/></mxGeometry></mxCell><mxCell id="160" value="ErrorPage" style="swimlane;fontStyle=1;align=center;verticalAlign=top;childLayout=stackLayout;horizontal=1;startSize=26;horizontalStack=0;resizeParent=1;resizeParentMax=0;resizeLast=0;collapsible=1;marginBottom=0;" parent="1" vertex="1"><mxGeometry x="30" y="536" width="160" height="112" as="geometry"/></mxCell><mxCell id="161" value="+ status: int" style="text;strokeColor=none;fillColor=none;align=left;verticalAlign=top;spacingLeft=4;spacingRight=4;overflow=hidden;rotatable=0;points=[[0,0.5],[1,0.5]];portConstraint=eastwest;" parent="160" vertex="1"><mxGeometry y="26" width="160" height="26" as="geometry"/></mxCell><mxCell id="169" value="+ location: string" style="text;strokeColor=none;fillColor=none;align=left;verticalAlign=top;spacingLeft=4;spacingRight=4;overflow=hidden;rotatable=0;points=[[0,0.5],[1,0.5]];portConstraint=eastwest;" parent="160" vertex="1"><mxGeometry y="52" width="160" height="26" as="geometry"/></mxCell><mxCell id="162" value="" style="line;strokeWidth=1;fillColor=none;align=left;verticalAlign=middle;spacingTop=-1;spacingLeft=3;spacingRight=3;rotatable=0;labelPosition=right;points=[];portConstraint=eastwest;" parent="160" vertex="1"><mxGeometry y="78" width="160" height="8" as="geometry"/></mxCell><mxCell id="163" value="+ getPage(void): string" style="text;strokeColor=none;fillColor=none;align=left;verticalAlign=top;spacingLeft=4;spacingRight=4;overflow=hidden;rotatable=0;points=[[0,0.5],[1,0.5]];portConstraint=eastwest;" parent="160" vertex="1"><mxGeometry y="86" width="160" height="26" as="geometry"/></mxCell><mxCell id="168" value="" style="endArrow=diamondThin;endFill=0;endSize=24;html=1;" parent="1" source="58" target="36" edge="1"><mxGeometry width="160" relative="1" as="geometry"><mxPoint x="50" y="630" as="sourcePoint"/><mxPoint x="210" y="630" as="targetPoint"/></mxGeometry></mxCell><mxCell id="170" value="0..*" style="endArrow=diamondThin;endFill=0;endSize=24;html=1;" parent="1" source="160" target="36" edge="1"><mxGeometry x="-0.6315" y="4" width="160" relative="1" as="geometry"><mxPoint x="199.99999999999955" y="814.7636363636364" as="sourcePoint"/><mxPoint x="280" y="793.5272727272725" as="targetPoint"/><mxPoint as="offset"/></mxGeometry></mxCell><mxCell id="171" value="MimeType" style="swimlane;fontStyle=1;align=center;verticalAlign=top;childLayout=stackLayout;horizontal=1;startSize=26;horizontalStack=0;resizeParent=1;resizeParentMax=0;resizeLast=0;collapsible=1;marginBottom=0;" parent="1" vertex="1"><mxGeometry x="590" y="876" width="200" height="112" as="geometry"/></mxCell><mxCell id="172" value="- _mimeType: string" style="text;strokeColor=none;fillColor=none;align=left;verticalAlign=top;spacingLeft=4;spacingRight=4;overflow=hidden;rotatable=0;points=[[0,0.5],[1,0.5]];portConstraint=eastwest;" parent="171" vertex="1"><mxGeometry y="26" width="200" height="26" as="geometry"/></mxCell><mxCell id="175" value="- _extension: string" style="text;strokeColor=none;fillColor=none;align=left;verticalAlign=top;spacingLeft=4;spacingRight=4;overflow=hidden;rotatable=0;points=[[0,0.5],[1,0.5]];portConstraint=eastwest;" parent="171" vertex="1"><mxGeometry y="52" width="200" height="26" as="geometry"/></mxCell><mxCell id="173" value="" style="line;strokeWidth=1;fillColor=none;align=left;verticalAlign=middle;spacingTop=-1;spacingLeft=3;spacingRight=3;rotatable=0;labelPosition=right;points=[];portConstraint=eastwest;" parent="171" vertex="1"><mxGeometry y="78" width="200" height="8" as="geometry"/></mxCell><mxCell id="174" value="+ MimeType(string, string): void" style="text;strokeColor=none;fillColor=none;align=left;verticalAlign=top;spacingLeft=4;spacingRight=4;overflow=hidden;rotatable=0;points=[[0,0.5],[1,0.5]];portConstraint=eastwest;" parent="171" vertex="1"><mxGeometry y="86" width="200" height="26" as="geometry"/></mxCell><mxCell id="176" value="0..*" style="endArrow=diamondThin;endFill=0;endSize=24;html=1;" parent="1" source="171" target="36" edge="1"><mxGeometry x="-0.6316" y="-2" width="160" relative="1" as="geometry"><mxPoint x="197.1341463414633" y="940" as="sourcePoint"/><mxPoint x="280" y="865.8727272727272" as="targetPoint"/><mxPoint as="offset"/></mxGeometry></mxCell><mxCell id="184" value="" style="endArrow=diamondThin;endFill=0;endSize=24;html=1;" parent="1" source="19" target="28" edge="1"><mxGeometry width="160" relative="1" as="geometry"><mxPoint x="1170" y="425" as="sourcePoint"/><mxPoint x="1230" y="372" as="targetPoint"/></mxGeometry></mxCell><mxCell id="186" value="ResponseRedirect" style="swimlane;fontStyle=1;align=center;verticalAlign=top;childLayout=stackLayout;horizontal=1;startSize=26;horizontalStack=0;resizeParent=1;resizeParentMax=0;resizeLast=0;collapsible=1;marginBottom=0;" parent="1" vertex="1"><mxGeometry x="1315" y="160" width="160" height="52" as="geometry"/></mxCell><mxCell id="190" value="+ redirect(string): void" style="text;strokeColor=none;fillColor=none;align=left;verticalAlign=top;spacingLeft=4;spacingRight=4;overflow=hidden;rotatable=0;points=[[0,0.5],[1,0.5]];portConstraint=eastwest;" parent="186" vertex="1"><mxGeometry y="26" width="160" height="26" as="geometry"/></mxCell><mxCell id="195" value="ResponseCGI" style="swimlane;fontStyle=1;align=center;verticalAlign=top;childLayout=stackLayout;horizontal=1;startSize=26;horizontalStack=0;resizeParent=1;resizeParentMax=0;resizeLast=0;collapsible=1;marginBottom=0;" parent="1" vertex="1"><mxGeometry x="1315" y="362" width="160" height="52" as="geometry"/></mxCell><mxCell id="204" value="Extends" style="endArrow=block;endSize=16;endFill=0;html=1;exitX=0;exitY=0.5;exitDx=0;exitDy=0;entryX=0.75;entryY=0;entryDx=0;entryDy=0;" parent="1" target="28" edge="1"><mxGeometry width="160" relative="1" as="geometry"><mxPoint x="1315" y="224" as="sourcePoint"/><mxPoint x="1020" y="422" as="targetPoint"/></mxGeometry></mxCell><mxCell id="205" value="Extends" style="endArrow=block;endSize=16;endFill=0;html=1;exitX=0;exitY=0.25;exitDx=0;exitDy=0;entryX=1;entryY=0.25;entryDx=0;entryDy=0;" parent="1" source="195" target="28" edge="1"><mxGeometry width="160" relative="1" as="geometry"><mxPoint x="1230" y="532" as="sourcePoint"/><mxPoint x="1260" y="352" as="targetPoint"/></mxGeometry></mxCell><mxCell id="206" value="ResponseFile" style="swimlane;fontStyle=1;align=center;verticalAlign=top;childLayout=stackLayout;horizontal=1;startSize=26;horizontalStack=0;resizeParent=1;resizeParentMax=0;resizeLast=0;collapsible=1;marginBottom=0;" parent="1" vertex="1"><mxGeometry x="1315" y="448" width="160" height="52" as="geometry"/></mxCell><mxCell id="207" value="+ filename(string): void" style="text;strokeColor=none;fillColor=none;align=left;verticalAlign=top;spacingLeft=4;spacingRight=4;overflow=hidden;rotatable=0;points=[[0,0.5],[1,0.5]];portConstraint=eastwest;" parent="206" vertex="1"><mxGeometry y="26" width="160" height="26" as="geometry"/></mxCell><mxCell id="208" value="Extends" style="endArrow=block;endSize=16;endFill=0;html=1;exitX=0;exitY=0.25;exitDx=0;exitDy=0;" parent="1" source="206" target="28" edge="1"><mxGeometry width="160" relative="1" as="geometry"><mxPoint x="1324.9999999999998" y="385" as="sourcePoint"/><mxPoint x="1204.9999999999998" y="399.9999999999999" as="targetPoint"/></mxGeometry></mxCell><mxCell id="221" value="JsonNumber" style="swimlane;fontStyle=1;align=center;verticalAlign=top;childLayout=stackLayout;horizontal=1;startSize=26;horizontalStack=0;resizeParent=1;resizeParentMax=0;resizeLast=0;collapsible=1;marginBottom=0;" parent="1" vertex="1"><mxGeometry x="2275" y="480" width="225" height="190" as="geometry"/></mxCell><mxCell id="222" value="- _value: void*" style="text;strokeColor=none;fillColor=none;align=left;verticalAlign=top;spacingLeft=4;spacingRight=4;overflow=hidden;rotatable=0;points=[[0,0.5],[1,0.5]];portConstraint=eastwest;" parent="221" vertex="1"><mxGeometry y="26" width="225" height="26" as="geometry"/></mxCell><mxCell id="243" value="- _valueType: JsonType" style="text;strokeColor=none;fillColor=none;align=left;verticalAlign=top;spacingLeft=4;spacingRight=4;overflow=hidden;rotatable=0;points=[[0,0.5],[1,0.5]];portConstraint=eastwest;" parent="221" vertex="1"><mxGeometry y="52" width="225" height="26" as="geometry"/></mxCell><mxCell id="223" value="" style="line;strokeWidth=1;fillColor=none;align=left;verticalAlign=middle;spacingTop=-1;spacingLeft=3;spacingRight=3;rotatable=0;labelPosition=right;points=[];portConstraint=eastwest;" parent="221" vertex="1"><mxGeometry y="78" width="225" height="8" as="geometry"/></mxCell><mxCell id="247" value="+ setInt(int): void" style="text;strokeColor=none;fillColor=none;align=left;verticalAlign=top;spacingLeft=4;spacingRight=4;overflow=hidden;rotatable=0;points=[[0,0.5],[1,0.5]];portConstraint=eastwest;" parent="221" vertex="1"><mxGeometry y="86" width="225" height="26" as="geometry"/></mxCell><mxCell id="248" value="+ setFloat(float): void" style="text;strokeColor=none;fillColor=none;align=left;verticalAlign=top;spacingLeft=4;spacingRight=4;overflow=hidden;rotatable=0;points=[[0,0.5],[1,0.5]];portConstraint=eastwest;" parent="221" vertex="1"><mxGeometry y="112" width="225" height="26" as="geometry"/></mxCell><mxCell id="228" value="+ getInt(): int" style="text;strokeColor=none;fillColor=none;align=left;verticalAlign=top;spacingLeft=4;spacingRight=4;overflow=hidden;rotatable=0;points=[[0,0.5],[1,0.5]];portConstraint=eastwest;" parent="221" vertex="1"><mxGeometry y="138" width="225" height="26" as="geometry"/></mxCell><mxCell id="229" value="+ getFloat(): float" style="text;strokeColor=none;fillColor=none;align=left;verticalAlign=top;spacingLeft=4;spacingRight=4;overflow=hidden;rotatable=0;points=[[0,0.5],[1,0.5]];portConstraint=eastwest;" parent="221" vertex="1"><mxGeometry y="164" width="225" height="26" as="geometry"/></mxCell><mxCell id="244" value="&lt;p style=&quot;margin: 0px ; margin-top: 4px ; text-align: center ; text-decoration: underline&quot;&gt;&lt;b&gt;enum JsonType&lt;/b&gt;&lt;/p&gt;&lt;hr&gt;&lt;p style=&quot;margin: 0px ; margin-left: 8px&quot;&gt;null&lt;/p&gt;&lt;p style=&quot;margin: 0px ; margin-left: 8px&quot;&gt;string&lt;/p&gt;&lt;p style=&quot;margin: 0px ; margin-left: 8px&quot;&gt;number&lt;/p&gt;&lt;p style=&quot;margin: 0px ; margin-left: 8px&quot;&gt;object&lt;/p&gt;&lt;p style=&quot;margin: 0px ; margin-left: 8px&quot;&gt;array&lt;/p&gt;&lt;p style=&quot;margin: 0px ; margin-left: 8px&quot;&gt;true&lt;br&gt;&lt;/p&gt;&lt;p style=&quot;margin: 0px ; margin-left: 8px&quot;&gt;false&lt;/p&gt;" style="verticalAlign=top;align=left;overflow=fill;fontSize=12;fontFamily=Helvetica;html=1;strokeColor=default;" parent="1" vertex="1"><mxGeometry x="1780" y="140" width="160" height="148" as="geometry"/></mxCell><mxCell id="249" value="JsonValue" style="swimlane;fontStyle=1;align=center;verticalAlign=top;childLayout=stackLayout;horizontal=1;startSize=26;horizontalStack=0;resizeParent=1;resizeParentMax=0;resizeLast=0;collapsible=1;marginBottom=0;" parent="1" vertex="1"><mxGeometry x="2120" y="190" width="225" height="86" as="geometry"/></mxCell><mxCell id="251" value="- _valueType: JsonType" style="text;strokeColor=none;fillColor=none;align=left;verticalAlign=top;spacingLeft=4;spacingRight=4;overflow=hidden;rotatable=0;points=[[0,0.5],[1,0.5]];portConstraint=eastwest;" parent="249" vertex="1"><mxGeometry y="26" width="225" height="26" as="geometry"/></mxCell><mxCell id="252" value="" style="line;strokeWidth=1;fillColor=none;align=left;verticalAlign=middle;spacingTop=-1;spacingLeft=3;spacingRight=3;rotatable=0;labelPosition=right;points=[];portConstraint=eastwest;" parent="249" vertex="1"><mxGeometry y="52" width="225" height="8" as="geometry"/></mxCell><mxCell id="261" value="+ getValueType(): String" style="text;strokeColor=none;fillColor=none;align=left;verticalAlign=top;spacingLeft=4;spacingRight=4;overflow=hidden;rotatable=0;points=[[0,0.5],[1,0.5]];portConstraint=eastwest;" parent="249" vertex="1"><mxGeometry y="60" width="225" height="26" as="geometry"/></mxCell><mxCell id="264" value="JsonString" style="swimlane;fontStyle=1;align=center;verticalAlign=top;childLayout=stackLayout;horizontal=1;startSize=26;horizontalStack=0;resizeParent=1;resizeParentMax=0;resizeLast=0;collapsible=1;marginBottom=0;" parent="1" vertex="1"><mxGeometry x="2360" y="330" width="175" height="112" as="geometry"/></mxCell><mxCell id="265" value="- _value: string" style="text;strokeColor=none;fillColor=none;align=left;verticalAlign=top;spacingLeft=4;spacingRight=4;overflow=hidden;rotatable=0;points=[[0,0.5],[1,0.5]];portConstraint=eastwest;" parent="264" vertex="1"><mxGeometry y="26" width="175" height="26" as="geometry"/></mxCell><mxCell id="267" value="" style="line;strokeWidth=1;fillColor=none;align=left;verticalAlign=middle;spacingTop=-1;spacingLeft=3;spacingRight=3;rotatable=0;labelPosition=right;points=[];portConstraint=eastwest;" parent="264" vertex="1"><mxGeometry y="52" width="175" height="8" as="geometry"/></mxCell><mxCell id="268" value="+ get(): string" style="text;strokeColor=none;fillColor=none;align=left;verticalAlign=top;spacingLeft=4;spacingRight=4;overflow=hidden;rotatable=0;points=[[0,0.5],[1,0.5]];portConstraint=eastwest;" parent="264" vertex="1"><mxGeometry y="60" width="175" height="26" as="geometry"/></mxCell><mxCell id="269" value="+ set(string): void" style="text;strokeColor=none;fillColor=none;align=left;verticalAlign=top;spacingLeft=4;spacingRight=4;overflow=hidden;rotatable=0;points=[[0,0.5],[1,0.5]];portConstraint=eastwest;" parent="264" vertex="1"><mxGeometry y="86" width="175" height="26" as="geometry"/></mxCell><mxCell id="279" value="Extends" style="endArrow=block;endSize=16;endFill=0;html=1;" parent="1" source="264" target="249" edge="1"><mxGeometry width="160" relative="1" as="geometry"><mxPoint x="2100" y="340" as="sourcePoint"/><mxPoint x="2260" y="340" as="targetPoint"/></mxGeometry></mxCell><mxCell id="280" value="Extends" style="endArrow=block;endSize=16;endFill=0;html=1;" parent="1" source="221" target="249" edge="1"><mxGeometry width="160" relative="1" as="geometry"><mxPoint x="2340" y="390" as="sourcePoint"/><mxPoint x="2500" y="390" as="targetPoint"/></mxGeometry></mxCell><mxCell id="281" value="Extends" style="endArrow=block;endSize=16;endFill=0;html=1;startArrow=none;" parent="1" source="7" target="249" edge="1"><mxGeometry width="160" relative="1" as="geometry"><mxPoint x="1999.995107913669" y="390" as="sourcePoint"/><mxPoint x="2051.5058992805757" y="211" as="targetPoint"/></mxGeometry></mxCell><mxCell id="282" value="Extends" style="endArrow=block;endSize=16;endFill=0;html=1;" parent="1" source="7" target="249" edge="1"><mxGeometry width="160" relative="1" as="geometry"><mxPoint x="1936.35" y="400" as="sourcePoint"/><mxPoint x="2158.65" y="286" as="targetPoint"/></mxGeometry></mxCell><mxCell id="283" value="Json" style="swimlane;fontStyle=1;align=center;verticalAlign=top;childLayout=stackLayout;horizontal=1;startSize=26;horizontalStack=0;resizeParent=1;resizeParentMax=0;resizeLast=0;collapsible=1;marginBottom=0;" parent="1" vertex="1"><mxGeometry x="2000" y="878" width="265" height="52" as="geometry"/></mxCell><mxCell id="286" value="+ static parseToObject(string): JsonObject" style="text;strokeColor=none;fillColor=none;align=left;verticalAlign=top;spacingLeft=4;spacingRight=4;overflow=hidden;rotatable=0;points=[[0,0.5],[1,0.5]];portConstraint=eastwest;" parent="283" vertex="1"><mxGeometry y="26" width="265" height="26" as="geometry"/></mxCell><mxCell id="300" value="JsonArray" style="swimlane;fontStyle=1;align=center;verticalAlign=top;childLayout=stackLayout;horizontal=1;startSize=26;horizontalStack=0;resizeParent=1;resizeParentMax=0;resizeLast=0;collapsible=1;marginBottom=0;" parent="1" vertex="1"><mxGeometry x="2010" y="450" width="225" height="372" as="geometry"/></mxCell><mxCell id="302" value="- _value: vector&lt;JsonValue&gt;" style="text;strokeColor=none;fillColor=none;align=left;verticalAlign=top;spacingLeft=4;spacingRight=4;overflow=hidden;rotatable=0;points=[[0,0.5],[1,0.5]];portConstraint=eastwest;" parent="300" vertex="1"><mxGeometry y="26" width="225" height="26" as="geometry"/></mxCell><mxCell id="303" value="" style="line;strokeWidth=1;fillColor=none;align=left;verticalAlign=middle;spacingTop=-1;spacingLeft=3;spacingRight=3;rotatable=0;labelPosition=right;points=[];portConstraint=eastwest;" parent="300" vertex="1"><mxGeometry y="52" width="225" height="8" as="geometry"/></mxCell><mxCell id="319" value="+ getLenght(): int" style="text;strokeColor=none;fillColor=none;align=left;verticalAlign=top;spacingLeft=4;spacingRight=4;overflow=hidden;rotatable=0;points=[[0,0.5],[1,0.5]];portConstraint=eastwest;" parent="300" vertex="1"><mxGeometry y="60" width="225" height="26" as="geometry"/></mxCell><mxCell id="305" value="+ getFloat(int): float" style="text;strokeColor=none;fillColor=none;align=left;verticalAlign=top;spacingLeft=4;spacingRight=4;overflow=hidden;rotatable=0;points=[[0,0.5],[1,0.5]];portConstraint=eastwest;" parent="300" vertex="1"><mxGeometry y="86" width="225" height="26" as="geometry"/></mxCell><mxCell id="307" value="+ getInt(int): int" style="text;strokeColor=none;fillColor=none;align=left;verticalAlign=top;spacingLeft=4;spacingRight=4;overflow=hidden;rotatable=0;points=[[0,0.5],[1,0.5]];portConstraint=eastwest;" parent="300" vertex="1"><mxGeometry y="112" width="225" height="26" as="geometry"/></mxCell><mxCell id="309" value="+ getString(int): String" style="text;strokeColor=none;fillColor=none;align=left;verticalAlign=top;spacingLeft=4;spacingRight=4;overflow=hidden;rotatable=0;points=[[0,0.5],[1,0.5]];portConstraint=eastwest;" parent="300" vertex="1"><mxGeometry y="138" width="225" height="26" as="geometry"/></mxCell><mxCell id="311" value="+ getValue(int): JsonValue" style="text;strokeColor=none;fillColor=none;align=left;verticalAlign=top;spacingLeft=4;spacingRight=4;overflow=hidden;rotatable=0;points=[[0,0.5],[1,0.5]];portConstraint=eastwest;" parent="300" vertex="1"><mxGeometry y="164" width="225" height="26" as="geometry"/></mxCell><mxCell id="313" value="+ getArray(int): JsonArray" style="text;strokeColor=none;fillColor=none;align=left;verticalAlign=top;spacingLeft=4;spacingRight=4;overflow=hidden;rotatable=0;points=[[0,0.5],[1,0.5]];portConstraint=eastwest;" parent="300" vertex="1"><mxGeometry y="190" width="225" height="26" as="geometry"/></mxCell><mxCell id="315" value="+ getObject(int): JsonObject" style="text;strokeColor=none;fillColor=none;align=left;verticalAlign=top;spacingLeft=4;spacingRight=4;overflow=hidden;rotatable=0;points=[[0,0.5],[1,0.5]];portConstraint=eastwest;" parent="300" vertex="1"><mxGeometry y="216" width="225" height="26" as="geometry"/></mxCell><mxCell id="310" value="+ pushString(string&amp;): void" style="text;strokeColor=none;fillColor=none;align=left;verticalAlign=top;spacingLeft=4;spacingRight=4;overflow=hidden;rotatable=0;points=[[0,0.5],[1,0.5]];portConstraint=eastwest;" parent="300" vertex="1"><mxGeometry y="242" width="225" height="26" as="geometry"/></mxCell><mxCell id="314" value="+ pushArray(JsonArray&amp;): void" style="text;strokeColor=none;fillColor=none;align=left;verticalAlign=top;spacingLeft=4;spacingRight=4;overflow=hidden;rotatable=0;points=[[0,0.5],[1,0.5]];portConstraint=eastwest;" parent="300" vertex="1"><mxGeometry y="268" width="225" height="26" as="geometry"/></mxCell><mxCell id="316" value="+ pushObject(JsonObject&amp;): void" style="text;strokeColor=none;fillColor=none;align=left;verticalAlign=top;spacingLeft=4;spacingRight=4;overflow=hidden;rotatable=0;points=[[0,0.5],[1,0.5]];portConstraint=eastwest;" parent="300" vertex="1"><mxGeometry y="294" width="225" height="26" as="geometry"/></mxCell><mxCell id="308" value="+ pushInt(int): void" style="text;strokeColor=none;fillColor=none;align=left;verticalAlign=top;spacingLeft=4;spacingRight=4;overflow=hidden;rotatable=0;points=[[0,0.5],[1,0.5]];portConstraint=eastwest;" parent="300" vertex="1"><mxGeometry y="320" width="225" height="26" as="geometry"/></mxCell><mxCell id="320" value="+ pushFloat(float): void" style="text;strokeColor=none;fillColor=none;align=left;verticalAlign=top;spacingLeft=4;spacingRight=4;overflow=hidden;rotatable=0;points=[[0,0.5],[1,0.5]];portConstraint=eastwest;" parent="300" vertex="1"><mxGeometry y="346" width="225" height="26" as="geometry"/></mxCell><mxCell id="7" value="JsonObject" style="swimlane;fontStyle=1;align=center;verticalAlign=top;childLayout=stackLayout;horizontal=1;startSize=26;horizontalStack=0;resizeParent=1;resizeParentMax=0;resizeLast=0;collapsible=1;marginBottom=0;" parent="1" vertex="1"><mxGeometry x="1740" y="320" width="225" height="372" as="geometry"/></mxCell><mxCell id="8" value="- _value: map&lt;string, JsonValue&gt;" style="text;strokeColor=none;fillColor=none;align=left;verticalAlign=top;spacingLeft=4;spacingRight=4;overflow=hidden;rotatable=0;points=[[0,0.5],[1,0.5]];portConstraint=eastwest;" parent="7" vertex="1"><mxGeometry y="26" width="225" height="26" as="geometry"/></mxCell><mxCell id="9" value="" style="line;strokeWidth=1;fillColor=none;align=left;verticalAlign=middle;spacingTop=-1;spacingLeft=3;spacingRight=3;rotatable=0;labelPosition=right;points=[];portConstraint=eastwest;" parent="7" vertex="1"><mxGeometry y="52" width="225" height="8" as="geometry"/></mxCell><mxCell id="239" value="+ getFloat(string): float" style="text;strokeColor=none;fillColor=none;align=left;verticalAlign=top;spacingLeft=4;spacingRight=4;overflow=hidden;rotatable=0;points=[[0,0.5],[1,0.5]];portConstraint=eastwest;" parent="7" vertex="1"><mxGeometry y="60" width="225" height="26" as="geometry"/></mxCell><mxCell id="296" value="+ setFloat(string, float): void" style="text;strokeColor=none;fillColor=none;align=left;verticalAlign=top;spacingLeft=4;spacingRight=4;overflow=hidden;rotatable=0;points=[[0,0.5],[1,0.5]];portConstraint=eastwest;" parent="7" vertex="1"><mxGeometry y="86" width="225" height="26" as="geometry"/></mxCell><mxCell id="238" value="+ getInt(string): int" style="text;strokeColor=none;fillColor=none;align=left;verticalAlign=top;spacingLeft=4;spacingRight=4;overflow=hidden;rotatable=0;points=[[0,0.5],[1,0.5]];portConstraint=eastwest;" parent="7" vertex="1"><mxGeometry y="112" width="225" height="26" as="geometry"/></mxCell><mxCell id="295" value="+ setInt(string, int): void" style="text;strokeColor=none;fillColor=none;align=left;verticalAlign=top;spacingLeft=4;spacingRight=4;overflow=hidden;rotatable=0;points=[[0,0.5],[1,0.5]];portConstraint=eastwest;" parent="7" vertex="1"><mxGeometry y="138" width="225" height="26" as="geometry"/></mxCell><mxCell id="237" value="+ getString(string): String" style="text;strokeColor=none;fillColor=none;align=left;verticalAlign=top;spacingLeft=4;spacingRight=4;overflow=hidden;rotatable=0;points=[[0,0.5],[1,0.5]];portConstraint=eastwest;" parent="7" vertex="1"><mxGeometry y="164" width="225" height="26" as="geometry"/></mxCell><mxCell id="294" value="+ setString(string, string&amp;): void" style="text;strokeColor=none;fillColor=none;align=left;verticalAlign=top;spacingLeft=4;spacingRight=4;overflow=hidden;rotatable=0;points=[[0,0.5],[1,0.5]];portConstraint=eastwest;" parent="7" vertex="1"><mxGeometry y="190" width="225" height="26" as="geometry"/></mxCell><mxCell id="235" value="+ getValue(string): JsonValue" style="text;strokeColor=none;fillColor=none;align=left;verticalAlign=top;spacingLeft=4;spacingRight=4;overflow=hidden;rotatable=0;points=[[0,0.5],[1,0.5]];portConstraint=eastwest;" parent="7" vertex="1"><mxGeometry y="216" width="225" height="26" as="geometry"/></mxCell><mxCell id="297" value="+ setValue(string, JsonValue*): void" style="text;strokeColor=none;fillColor=none;align=left;verticalAlign=top;spacingLeft=4;spacingRight=4;overflow=hidden;rotatable=0;points=[[0,0.5],[1,0.5]];portConstraint=eastwest;" parent="7" vertex="1"><mxGeometry y="242" width="225" height="26" as="geometry"/></mxCell><mxCell id="215" value="+ getArray(string): JsonArray" style="text;strokeColor=none;fillColor=none;align=left;verticalAlign=top;spacingLeft=4;spacingRight=4;overflow=hidden;rotatable=0;points=[[0,0.5],[1,0.5]];portConstraint=eastwest;" parent="7" vertex="1"><mxGeometry y="268" width="225" height="26" as="geometry"/></mxCell><mxCell id="298" value="+ setArray(string, JsonArray&amp;): void" style="text;strokeColor=none;fillColor=none;align=left;verticalAlign=top;spacingLeft=4;spacingRight=4;overflow=hidden;rotatable=0;points=[[0,0.5],[1,0.5]];portConstraint=eastwest;" parent="7" vertex="1"><mxGeometry y="294" width="225" height="26" as="geometry"/></mxCell><mxCell id="240" value="+ getObject(string): JsonObject" style="text;strokeColor=none;fillColor=none;align=left;verticalAlign=top;spacingLeft=4;spacingRight=4;overflow=hidden;rotatable=0;points=[[0,0.5],[1,0.5]];portConstraint=eastwest;" parent="7" vertex="1"><mxGeometry y="320" width="225" height="26" as="geometry"/></mxCell><mxCell id="299" value="+ setObject(string, JsonObject&amp;): void" style="text;strokeColor=none;fillColor=none;align=left;verticalAlign=top;spacingLeft=4;spacingRight=4;overflow=hidden;rotatable=0;points=[[0,0.5],[1,0.5]];portConstraint=eastwest;" parent="7" vertex="1"><mxGeometry y="346" width="225" height="26" as="geometry"/></mxCell><mxCell id="318" value="Extends" style="endArrow=block;endSize=16;endFill=0;html=1;" parent="1" source="300" target="249" edge="1"><mxGeometry width="160" relative="1" as="geometry"><mxPoint x="1975" y="444.32894736842104" as="sourcePoint"/><mxPoint x="2185.3671328671326" y="286" as="targetPoint"/></mxGeometry></mxCell></root></mxGraphModel></diagram></mxfile>